<?xml version="1.0" standalone="no"?>
<!DOCTYPE svg PUBLIC "-//W3C//DTD SVG 20010904//EN"
 "http://www.w3.org/TR/2001/REC-SVG-20010904/DTD/svg10.dtd">
<svg version="1.0" xmlns="http://www.w3.org/2000/svg"
 width="1919.000000pt" height="1109.000000pt" viewBox="0 0 1919.000000 1109.000000"
 preserveAspectRatio="xMidYMid meet">

<g transform="translate(0.000000,1109.000000) scale(0.100000,-0.100000)"
fill="#000000" stroke="none">
<path d="M3979 10386 c-86 -23 -170 -103 -200 -191 -12 -33 -14 -271 -14
-1420 l0 -1380 80 0 80 0 5 1391 c5 1350 6 1393 24 1413 10 11 35 25 55 31 24
6 1920 10 5596 10 5273 0 5562 -1 5595 -18 20 -10 42 -32 52 -52 17 -33 18
-121 18 -1407 l0 -1373 80 0 80 0 -2 1393 -3 1392 -28 57 c-32 64 -80 111
-146 142 l-46 21 -5590 2 c-4431 1 -5600 -1 -5636 -11z"/>
<path d="M3400 7133 c-257 -38 -462 -168 -597 -375 -61 -92 -96 -178 -120
-289 -15 -71 -18 -133 -18 -409 0 -304 2 -331 23 -415 76 -304 302 -536 602
-617 115 -31 395 -33 505 -4 299 80 509 282 602 581 l28 90 0 375 0 375 -28
88 c-48 155 -116 265 -229 373 -168 161 -369 236 -627 233 -64 -1 -127 -3
-141 -6z m260 -379 c103 -31 181 -100 231 -209 54 -114 61 -177 57 -510 -3
-297 -4 -301 -31 -378 -46 -130 -110 -210 -207 -256 -48 -23 -67 -26 -160 -26
-99 0 -110 2 -172 33 -106 52 -178 153 -215 299 -26 100 -26 627 0 726 20 81
65 173 108 222 86 98 251 140 389 99z"/>
<path d="M7334 7125 c-261 -47 -455 -171 -543 -346 -41 -82 -55 -156 -48 -264
13 -226 114 -354 381 -484 94 -46 266 -114 396 -156 92 -30 213 -90 254 -126
73 -63 96 -169 57 -254 -23 -51 -53 -78 -116 -107 -43 -19 -67 -22 -165 -22
-156 0 -262 33 -322 101 -29 32 -56 105 -64 171 l-7 62 -235 0 -234 0 4 -87
c12 -214 124 -378 336 -491 160 -85 320 -122 527 -122 275 0 473 64 620 201
108 101 155 218 155 384 0 326 -169 498 -652 665 -302 104 -398 154 -435 230
-28 53 -29 92 -4 145 44 98 140 147 286 148 109 1 174 -19 234 -69 49 -43 79
-97 88 -159 l6 -45 233 0 c128 0 235 3 237 8 2 4 0 42 -4 85 -26 228 -201 421
-459 503 -134 43 -376 57 -526 29z"/>
<path d="M15548 7126 c-155 -28 -287 -85 -398 -172 -132 -104 -190 -228 -190
-403 1 -317 163 -464 723 -657 266 -92 355 -153 377 -258 24 -118 -29 -213
-141 -252 -104 -36 -309 -21 -406 29 -76 40 -133 144 -133 244 l0 43 -240 0
-240 0 0 -39 c0 -130 63 -297 146 -390 80 -89 243 -185 387 -228 198 -59 489
-58 687 3 191 58 347 192 400 346 41 122 37 295 -11 423 -67 179 -258 313
-628 440 -90 31 -207 76 -260 101 -139 65 -181 111 -181 199 0 112 88 191 236
215 114 18 221 -5 299 -64 38 -29 81 -107 90 -163 l7 -43 234 0 234 0 0 48
c-1 254 -209 481 -515 563 -103 27 -360 35 -477 15z"/>
<path d="M640 6070 l0 -1040 245 0 245 0 0 420 0 420 385 0 385 0 0 -420 0
-420 240 0 240 0 0 1040 0 1040 -240 0 -240 0 0 -435 0 -435 -385 0 -385 0 0
435 0 435 -245 0 -245 0 0 -1040z"/>
<path d="M4702 6363 c4 -728 4 -750 25 -824 31 -112 79 -202 145 -274 167
-182 385 -265 693 -265 301 0 522 82 682 254 77 82 123 167 155 283 21 76 22
98 26 826 l4 747 -246 0 -245 0 -3 -742 -3 -743 -24 -59 c-30 -75 -93 -137
-169 -167 -77 -31 -259 -34 -340 -6 -74 26 -155 102 -184 175 l-23 57 -3 743
-3 742 -245 0 -245 0 3 -747z"/>
<path d="M8600 6070 l0 -1040 725 0 725 0 -2 183 -3 182 -482 3 -483 2 0 260
0 260 410 0 410 0 0 185 0 185 -410 0 -410 0 0 225 0 225 485 0 485 0 0 185 0
185 -725 0 -725 0 0 -1040z"/>
<path d="M10990 6070 l0 -1040 245 0 245 0 0 400 0 400 173 0 c252 0 323 -16
393 -88 57 -59 71 -113 77 -317 6 -188 18 -279 44 -330 35 -68 21 -65 295 -65
140 0 248 4 248 9 0 5 -15 32 -34 60 -46 68 -56 115 -66 331 -13 273 -37 355
-131 455 -49 51 -169 125 -205 125 -28 0 -13 16 46 48 78 42 169 128 202 189
47 86 61 155 56 272 -4 73 -12 126 -27 171 -59 171 -202 303 -401 370 -132 45
-206 50 -697 50 l-463 0 0 -1040z m917 655 c27 -8 67 -28 89 -43 121 -88 139
-311 33 -407 -71 -64 -91 -68 -331 -73 l-218 -4 0 271 0 271 188 0 c138 0 202
-4 239 -15z"/>
<path d="M12922 6353 c4 -848 0 -800 79 -961 94 -193 301 -330 569 -377 107
-19 321 -19 425 -1 265 47 473 186 569 381 73 147 70 105 74 953 l3 762 -241
0 -240 0 0 -687 c0 -399 -5 -717 -10 -756 -30 -209 -165 -308 -400 -294 -151
9 -254 67 -307 175 l-28 57 -3 753 -3 752 -245 0 -245 0 3 -757z"/>
<path d="M16810 6070 l0 -1040 245 0 245 0 0 420 0 420 383 -2 382 -3 3 -417
2 -418 240 0 240 0 0 1040 0 1040 -240 0 -240 0 0 -435 0 -435 -385 0 -385 0
0 435 0 435 -245 0 -245 0 0 -1040z"/>
<path d="M6184 4500 c-50 -11 -101 -48 -118 -84 -45 -96 12 -171 166 -217 107
-31 147 -78 122 -144 -10 -25 -63 -47 -115 -47 -62 0 -111 27 -124 70 -8 28
-14 32 -42 32 -28 0 -33 -4 -33 -22 0 -37 36 -86 82 -110 58 -30 175 -32 232
-4 99 50 102 184 5 244 -19 11 -65 30 -104 41 -117 36 -148 71 -121 135 28 66
145 77 198 17 15 -17 28 -40 28 -51 0 -16 7 -20 35 -20 38 0 42 9 24 57 -17
45 -60 82 -113 98 -54 16 -74 17 -122 5z"/>
<path d="M14064 4501 c-73 -18 -134 -82 -134 -142 0 -67 63 -124 177 -158 102
-31 132 -55 133 -103 0 -40 -10 -57 -43 -75 -73 -37 -183 -8 -202 55 -8 28
-14 32 -42 32 -27 0 -33 -4 -33 -20 0 -66 81 -128 177 -137 76 -7 134 10 178
51 31 29 35 39 35 82 0 90 -46 134 -177 174 -97 29 -123 50 -123 101 0 66 49
97 133 86 46 -6 97 -52 97 -87 0 -16 7 -20 35 -20 29 0 35 4 35 21 0 52 -57
114 -124 134 -53 16 -74 17 -122 6z"/>
<path d="M15784 4501 c-72 -18 -133 -78 -154 -152 -6 -19 -10 -77 -10 -129 0
-79 4 -103 24 -145 13 -27 34 -60 47 -72 79 -72 213 -70 293 5 52 49 66 94 66
219 0 113 -6 142 -43 195 -39 59 -149 98 -223 79z m114 -71 c62 -28 82 -76 82
-205 0 -115 -14 -156 -69 -192 -66 -45 -161 -21 -197 49 -22 42 -30 174 -15
243 8 33 21 61 39 77 57 53 91 59 160 28z"/>
<path d="M17587 4496 c-81 -22 -123 -78 -114 -153 8 -73 47 -104 185 -148 85
-27 108 -45 118 -92 23 -114 -222 -131 -250 -17 -5 20 -13 24 -41 24 -39 0
-41 -6 -21 -54 49 -117 263 -143 354 -43 32 34 39 94 17 141 -21 44 -78 80
-170 107 -35 11 -78 31 -95 45 -67 57 -15 144 87 144 53 0 98 -30 113 -75 11
-33 15 -36 43 -33 28 3 32 6 29 28 -13 97 -137 159 -255 126z"/>
<path d="M1348 4494 c-5 -4 -8 -126 -8 -271 l0 -263 40 0 40 0 0 115 0 115 84
0 c75 0 88 -3 112 -24 25 -20 28 -32 31 -92 6 -112 7 -114 54 -114 35 0 40 2
33 18 -4 9 -10 55 -14 101 -6 81 -8 86 -41 115 l-35 29 34 32 c65 59 51 174
-28 219 -29 17 -57 21 -165 24 -71 2 -133 1 -137 -4z m273 -83 c21 -22 29 -39
29 -66 0 -27 -8 -44 -29 -66 -28 -28 -34 -29 -115 -29 l-86 0 0 95 0 95 86 0
c81 0 87 -1 115 -29z"/>
<path d="M2250 4230 l0 -270 180 0 180 0 0 25 0 25 -145 0 -145 0 0 100 0 100
126 0 125 0 -3 28 -3 27 -122 3 -123 3 0 84 0 85 140 0 140 0 0 30 0 30 -175
0 -175 0 0 -270z"/>
<path d="M3221 4478 c-29 -77 -166 -431 -182 -470 l-19 -48 38 0 38 0 24 70
24 71 115 -3 114 -3 25 -67 c24 -66 26 -68 58 -68 19 0 34 3 34 8 0 4 -44 124
-99 267 l-98 260 -32 3 c-25 3 -33 -1 -40 -20z m84 -190 c22 -62 42 -116 43
-120 2 -5 -38 -8 -88 -8 -70 0 -91 3 -87 13 2 6 22 60 43 119 22 60 41 108 44
108 3 0 23 -51 45 -112z"/>
<path d="M3970 4230 l0 -270 165 0 165 0 0 25 0 24 -127 3 -128 3 -3 243 -2
242 -35 0 -35 0 0 -270z"/>
<path d="M5240 4230 l0 -270 180 0 180 0 0 25 0 25 -145 0 -145 0 0 100 0 100
125 0 125 0 0 30 0 30 -125 0 -125 0 0 85 0 85 140 0 140 0 0 30 0 30 -175 0
-175 0 0 -270z"/>
<path d="M6880 4470 l0 -30 85 0 85 0 0 -240 0 -240 35 0 35 0 0 240 0 240 90
0 90 0 0 30 0 30 -210 0 -210 0 0 -30z"/>
<path d="M7861 4478 c-5 -13 -48 -124 -96 -248 -48 -124 -91 -235 -96 -247 -8
-21 -6 -23 29 -23 37 0 37 1 62 68 l25 67 114 0 113 0 25 -67 c24 -66 26 -68
59 -68 19 0 34 3 34 8 0 4 -45 124 -99 267 -99 258 -100 260 -130 263 -25 3
-33 -1 -40 -20z m89 -206 l40 -112 -91 0 c-74 0 -90 3 -86 14 3 7 23 61 44
119 21 58 41 103 45 99 4 -4 26 -58 48 -120z"/>
<path d="M8550 4470 l0 -30 90 0 90 0 0 -240 0 -240 35 0 35 0 0 240 0 240 85
0 85 0 0 30 0 30 -210 0 -210 0 0 -30z"/>
<path d="M9450 4230 l0 -270 180 0 180 0 0 25 0 25 -145 0 -145 0 0 100 0 100
126 0 125 0 -3 28 -3 27 -122 3 -123 3 0 84 0 85 140 0 140 0 0 30 0 30 -175
0 -175 0 0 -270z"/>
<path d="M10710 4230 l0 -270 35 0 35 0 0 270 0 270 -35 0 -35 0 0 -270z"/>
<path d="M11280 4230 l0 -270 35 0 35 0 0 208 c1 197 1 206 18 186 9 -11 69
-104 132 -207 l115 -187 38 0 37 0 0 270 0 270 -35 0 -35 0 -2 -210 -3 -210
-130 209 -130 210 -37 1 -38 0 0 -270z"/>
<path d="M12181 4493 c0 -5 44 -125 98 -268 l97 -260 34 0 33 0 94 250 c51
138 96 258 99 268 4 14 -1 17 -33 17 l-39 0 -64 -187 c-35 -104 -69 -203 -75
-220 -5 -18 -12 -33 -15 -33 -3 0 -39 99 -80 220 l-74 220 -38 0 c-21 0 -38
-3 -37 -7z"/>
<path d="M13120 4230 l0 -270 180 0 180 0 0 25 0 25 -145 0 -145 0 0 100 0
100 126 0 125 0 -3 28 -3 27 -122 3 -123 3 0 84 0 85 140 0 140 0 0 30 0 30
-175 0 -175 0 0 -270z"/>
<path d="M14760 4470 l0 -30 85 0 85 0 0 -240 0 -240 40 0 40 0 0 240 0 240
85 0 85 0 0 30 0 30 -210 0 -210 0 0 -30z"/>
<path d="M16580 4231 l0 -271 35 0 35 0 0 115 0 115 86 0 c128 0 143 -14 153
-145 l6 -80 43 -3 c41 -3 43 -2 33 17 -6 11 -11 44 -11 73 0 75 -16 125 -49
149 l-28 20 33 33 c44 44 53 94 28 154 -30 71 -68 86 -231 90 l-133 4 0 -271z
m277 185 c37 -32 40 -103 5 -138 -20 -20 -35 -23 -117 -26 l-95 -4 0 96 0 96
89 0 c81 0 93 -3 118 -24z"/>
<path d="M3765 3688 c-3 -8 -4 -632 -3 -1388 l3 -1375 24 -53 c29 -65 116
-147 174 -164 34 -11 1135 -13 5642 -13 l5600 0 46 21 c60 28 125 93 153 153
l21 46 3 1388 2 1387 -80 0 -80 0 -2 -1379 -3 -1380 -21 -28 c-11 -15 -36 -33
-55 -40 -45 -16 -11124 -18 -11180 -3 -20 6 -45 20 -55 31 -18 20 -19 63 -24
1413 l-5 1391 -78 3 c-57 2 -79 -1 -82 -10z"/>
</g>
</svg>
