<?xml version="1.0" standalone="no"?>
<!DOCTYPE svg PUBLIC "-//W3C//DTD SVG 20010904//EN"
 "http://www.w3.org/TR/2001/REC-SVG-20010904/DTD/svg10.dtd">
<svg version="1.0" xmlns="http://www.w3.org/2000/svg"
 width="475.000000pt" height="475.000000pt" viewBox="0 0 475.000000 475.000000"
 preserveAspectRatio="xMidYMid meet">

<g transform="translate(0.000000,475.000000) scale(0.100000,-0.100000)"
fill="#000000" stroke="none">
<path d="M2135 4740 c-445 -49 -851 -212 -1209 -483 -103 -77 -309 -278 -393
-382 -267 -330 -443 -730 -510 -1157 -25 -158 -25 -528 0 -686 67 -427 243
-827 510 -1157 84 -104 290 -305 393 -382 329 -249 698 -406 1106 -470 158
-25 528 -25 686 0 408 64 777 221 1106 470 103 77 309 278 393 382 267 330
443 730 510 1157 25 158 25 528 0 686 -67 427 -243 827 -510 1157 -84 104
-290 305 -393 382 -326 247 -699 406 -1099 469 -118 18 -474 27 -590 14z
m-897 -1431 c29 -10 32 -14 32 -51 l0 -40 -34 21 c-21 13 -50 21 -79 21 -39 0
-49 -4 -63 -26 -28 -41 -9 -72 80 -133 98 -67 118 -98 113 -169 -8 -116 -123
-163 -239 -99 -35 19 -38 24 -38 66 l0 45 28 -26 c38 -36 65 -48 106 -48 42 0
76 29 76 64 0 34 -33 71 -110 122 -114 75 -134 174 -50 241 37 31 107 35 178
12z m340 -2 c6 -7 58 -118 116 -247 109 -245 112 -259 53 -245 -18 5 -31 23
-53 76 -22 51 -34 69 -49 70 -97 5 -163 5 -180 -1 -12 -5 -29 -31 -44 -69 -13
-34 -29 -65 -35 -70 -11 -9 -52 -9 -61 1 -7 7 195 481 209 490 17 11 32 10 44
-5z m637 -22 l0 -30 -70 -1 c-38 -1 -76 -2 -82 -3 -10 -1 -13 -55 -15 -218
l-3 -218 -30 0 -30 0 -3 217 -2 217 -83 3 c-70 3 -82 6 -85 21 -9 47 -5 48
205 45 l198 -3 0 -30z m135 -162 c5 -186 6 -192 29 -217 31 -33 75 -45 132
-37 102 16 112 38 119 266 l5 180 30 0 30 0 3 -168 c3 -188 -5 -231 -49 -282
-36 -41 -81 -57 -163 -59 -85 -1 -152 32 -186 94 -23 42 -25 56 -28 218 -2 95
-1 179 2 188 4 10 16 14 38 12 l33 -3 5 -192z m661 171 c76 -44 90 -146 28
-210 l-33 -34 26 -27 c39 -42 138 -195 132 -205 -8 -12 -58 -10 -76 5 -8 6
-36 47 -63 90 -55 90 -85 117 -131 117 l-33 0 -3 -107 -3 -108 -30 0 -30 0 -3
240 c-1 132 0 246 3 254 8 22 171 11 216 -15z m282 4 c12 -13 87 -99 167 -192
l145 -168 5 188 5 189 30 0 30 0 3 -244 c1 -144 -2 -249 -7 -254 -25 -25 -64
9 -212 183 -85 99 -157 180 -161 180 -4 0 -9 -82 -10 -182 l-3 -183 -30 0 -30
0 -3 240 c-1 132 0 245 2 252 8 20 45 15 69 -9z m-2067 -789 c80 -21 124 -105
90 -175 -9 -19 -23 -37 -31 -40 -23 -9 -18 -20 16 -34 60 -25 86 -107 55 -169
-30 -57 -94 -78 -231 -77 l-90 1 -3 240 c-1 132 0 245 2 252 7 17 129 17 192
2z m418 -11 c16 -26 203 -445 208 -467 3 -13 -35 -23 -58 -14 -6 2 -24 35 -40
73 -33 79 -31 78 -162 70 l-84 -5 -25 -60 c-13 -33 -31 -65 -38 -71 -18 -13
-60 -11 -60 3 0 28 201 483 215 487 27 7 29 6 44 -16z m297 13 c3 0 32 -37 63
-81 32 -44 62 -82 66 -85 4 -3 34 30 65 73 32 42 65 83 73 90 17 13 68 16 76
4 2 -4 -35 -59 -82 -122 l-87 -115 -5 -130 -5 -130 -30 0 -30 0 -3 127 -3 128
-89 117 c-49 65 -85 120 -80 123 8 5 51 6 71 1z"/>
<path d="M1536 3159 c-8 -19 -24 -55 -35 -81 l-20 -48 22 -1 c12 -1 36 -2 52
-4 17 -1 40 1 51 4 21 6 21 7 -10 78 -18 40 -35 76 -39 79 -4 4 -13 -8 -21
-27z"/>
<path d="M2888 3253 c-28 -4 -28 -5 -28 -79 l0 -74 49 0 c65 0 93 22 93 74 0
59 -43 89 -114 79z"/>
<path d="M1100 2375 l0 -75 49 0 c66 0 101 27 101 79 0 54 -23 71 -93 71 l-57
0 0 -75z"/>
<path d="M1100 2155 l0 -75 70 0 c103 0 148 39 119 103 -16 34 -49 47 -124 47
l-65 0 0 -75z"/>
<path d="M1596 2359 c-8 -19 -23 -55 -34 -80 l-20 -46 61 -6 c34 -3 67 -2 73
1 8 5 2 28 -20 79 -18 40 -35 76 -39 79 -4 4 -13 -8 -21 -27z"/>
</g>
</svg>
